<svg aria-hidden="true" style="position: absolute; width: 0; height: 0; overflow: hidden;" version="1.1" xmlns="http://www.w3.org/2000/svg" xmlns:xlink="http://www.w3.org/1999/xlink">
<defs>

<symbol id="dribbble" viewBox="0 0 20 20">
<title>dribbble</title>
<path d="M10.26 9.982c0.033-0.012 0.068-0.021 0.103-0.031-0.083-0.185-0.175-0.377-0.279-0.584-1.88 0.557-3.68 0.562-4.001 0.557-0.003 0.025-0.003 0.051-0.003 0.076 0 0.945 0.34 1.853 0.958 2.566 0.206-0.332 1.298-1.961 3.222-2.584zM7.623 13.113c0.689 0.528 1.512 0.807 2.377 0.807 0.517 0 1.019-0.1 1.494-0.295-0.066-0.381-0.295-1.541-0.822-2.922-2.121 0.75-2.922 2.162-3.049 2.41zM12.555 7.027c-0.711-0.611-1.617-0.947-2.555-0.947-0.284 0-0.569 0.031-0.85 0.094 0.205 0.275 0.832 1.146 1.421 2.223 1.283-0.493 1.863-1.204 1.984-1.37zM9.705 8.664c-0.608-1.072-1.241-1.955-1.415-2.191-1.067 0.517-1.852 1.506-2.113 2.658h0.017c0.406 0 1.849-0.033 3.511-0.467zM11.514 10.496c0.465 1.293 0.679 2.367 0.74 2.711 0.852-0.6 1.434-1.521 1.609-2.543-0.174-0.053-0.802-0.221-1.592-0.221-0.258 0-0.513 0.018-0.757 0.053zM10 0.4c-5.302 0-9.6 4.298-9.6 9.6s4.298 9.6 9.6 9.6 9.6-4.298 9.6-9.6-4.298-9.6-9.6-9.6zM10 14.697c-2.592 0-4.699-2.107-4.699-4.697 0-2.592 2.107-4.699 4.699-4.699 2.591 0 4.698 2.108 4.698 4.699s-2.107 4.697-4.698 4.697zM10.922 9.074c0.087 0.18 0.168 0.357 0.242 0.531 0.023 0.057 0.048 0.113 0.071 0.17 0.277-0.033 0.573-0.049 0.882-0.049 0.854 0 1.563 0.125 1.801 0.172-0.022-0.85-0.323-1.676-0.852-2.34-0.16 0.206-0.818 0.963-2.144 1.516z"></path>
</symbol>

<symbol id="github" viewBox="0 0 20 20">
<title>github</title>
<path d="M10.015 9.949c0 0-0.010 0-0.015 0h-0.015c-1.191 0-2.24-0.303-2.861 0.268-0.371 0.342-0.527 0.754-0.527 1.197 0 1.852 1.483 2.080 3.389 2.080h0.029c1.905 0 3.389-0.229 3.389-2.080 0-0.443-0.156-0.856-0.527-1.197-0.622-0.571-1.671-0.268-2.862-0.268zM8.393 12.48c-0.363 0-0.656-0.408-0.656-0.91s0.293-0.908 0.656-0.908c0.363 0 0.657 0.406 0.657 0.908s-0.293 0.91-0.657 0.91zM11.606 12.48c-0.363 0-0.657-0.408-0.657-0.91s0.294-0.908 0.657-0.908c0.362 0 0.656 0.406 0.656 0.908s-0.293 0.91-0.656 0.91zM10 0.4c-5.302 0-9.6 4.298-9.6 9.6s4.298 9.6 9.6 9.6 9.6-4.298 9.6-9.6-4.298-9.6-9.6-9.6zM10.876 13.939c-0.172 0-0.514 0-0.876 0.002-0.362-0.002-0.704-0.002-0.876-0.002-0.76 0-3.772-0.059-3.772-3.689 0-0.834 0.286-1.445 0.755-1.955-0.074-0.184-0.078-1.232 0.32-2.236 0 0 0.916 0.1 2.301 1.051 0.289-0.081 0.781-0.122 1.272-0.122s0.982 0.041 1.273 0.121c1.385-0.951 2.301-1.051 2.301-1.051 0.398 1.004 0.395 2.053 0.32 2.236 0.469 0.51 0.755 1.121 0.755 1.955-0.001 3.632-3.013 3.69-3.773 3.69z"></path>
</symbol>

<symbol id="instagram" viewBox="0 0 20 20">
<title>instagram</title>
<path d="M13 10c0 1.657-1.343 3-3 3s-3-1.343-3-3c0-0.171 0.018-0.338 0.049-0.5h-1.049v3.997c0 0.278 0.225 0.503 0.503 0.503h6.995c0.277 0 0.502-0.225 0.502-0.503v-3.997h-1.049c0.031 0.162 0.049 0.329 0.049 0.5zM10 12c1.104 0 2-0.896 2-2s-0.896-2-2-2-2 0.896-2 2 0.896 2 2 2zM12.4 7.9h1.199c0.166 0 0.301-0.135 0.301-0.3v-1.199c0-0.166-0.135-0.301-0.301-0.301h-1.199c-0.166 0-0.301 0.135-0.301 0.301v1.199c0.001 0.165 0.136 0.3 0.301 0.3zM10 0.4c-5.302 0-9.6 4.298-9.6 9.6s4.298 9.6 9.6 9.6c5.302 0 9.6-4.298 9.6-9.6s-4.298-9.6-9.6-9.6zM15 13.889c0 0.611-0.5 1.111-1.111 1.111h-7.778c-0.611 0-1.111-0.5-1.111-1.111v-7.778c0-0.611 0.5-1.111 1.111-1.111h7.778c0.611 0 1.111 0.5 1.111 1.111v7.778z"></path>
</symbol>

<symbol id="linkedin" viewBox="0 0 20 20">
<title>linkedin</title>
<path d="M10 0.4c-5.302 0-9.6 4.298-9.6 9.6s4.298 9.6 9.6 9.6 9.6-4.298 9.6-9.6-4.298-9.6-9.6-9.6zM7.65 13.979h-1.944v-6.256h1.944v6.256zM6.666 6.955c-0.614 0-1.011-0.435-1.011-0.973 0-0.549 0.409-0.971 1.036-0.971s1.011 0.422 1.023 0.971c0 0.538-0.396 0.973-1.048 0.973zM14.75 13.979h-1.944v-3.467c0-0.807-0.282-1.355-0.985-1.355-0.537 0-0.856 0.371-0.997 0.728-0.052 0.127-0.065 0.307-0.065 0.486v3.607h-1.945v-4.26c0-0.781-0.025-1.434-0.051-1.996h1.689l0.089 0.869h0.039c0.256-0.408 0.883-1.010 1.932-1.010 1.279 0 2.238 0.857 2.238 2.699v3.699z"></path>
</symbol>

<symbol id="email" viewBox="0 0 24 24">
<title>email</title>
<path d="M12 .02c-6.627 0-12 5.373-12 12s5.373 12 12 12 12-5.373 12-12-5.373-12-12-12zm6.99 6.98l-6.99 5.666-6.991-5.666h13.981zm.01 10h-14v-8.505l7 5.673 7-5.672v8.504z"/>
</symbol>

<symbol id="twitter" viewBox="0 0 20 20">
<title>twitter</title>
<path d="M10 0.4c-5.302 0-9.6 4.298-9.6 9.6s4.298 9.6 9.6 9.6 9.6-4.298 9.6-9.6-4.298-9.6-9.6-9.6zM13.905 8.264c0.004 0.082 0.005 0.164 0.005 0.244 0 2.5-1.901 5.381-5.379 5.381-1.068 0-2.062-0.312-2.898-0.85 0.147 0.018 0.298 0.025 0.451 0.025 0.886 0 1.701-0.301 2.348-0.809-0.827-0.016-1.525-0.562-1.766-1.312 0.115 0.021 0.233 0.033 0.355 0.033 0.172 0 0.34-0.023 0.498-0.066-0.865-0.174-1.517-0.938-1.517-1.854v-0.023c0.255 0.141 0.547 0.227 0.857 0.237-0.508-0.34-0.841-0.918-0.841-1.575 0-0.346 0.093-0.672 0.256-0.951 0.933 1.144 2.325 1.896 3.897 1.977-0.033-0.139-0.049-0.283-0.049-0.432 0-1.043 0.846-1.891 1.891-1.891 0.543 0 1.035 0.23 1.38 0.598 0.431-0.086 0.835-0.242 1.2-0.459-0.141 0.441-0.44 0.812-0.831 1.047 0.383-0.047 0.747-0.148 1.086-0.299-0.253 0.379-0.574 0.713-0.943 0.979z"></path>
</symbol>


<symbol id="soundcloud" viewBox="0 0 24 24">
<title>soundcloud</title>
<path d="M12 0c-6.627 0-12 5.373-12 12s5.373 12 12 12 12-5.373 12-12-5.373-12-12-12zm-6.417 14.583c-.354-.318-.583-.79-.583-1.323 0-.532.229-1.003.583-1.323v2.646zm1.167.417c-.212 0-.323.003-.583-.08v-3.318c.276-.088.407-.085.583-.071v3.469zm1.167 0h-.584v-3.305l.18.105c.08-.328.222-.628.404-.895v4.095zm1.166 0h-.583v-4.706c.18-.134.373-.25.583-.33v5.036zm1.167 0h-.583v-5.167c.22-.023.286-.04.583.005v5.162zm1.167 0h-.584v-4.987l.222.107c.104-.181.228-.346.362-.5v5.38zm5.885 0h-5.302v-5.904c.465-.32 1.016-.512 1.611-.512 1.583 0 2.866 1.307 2.984 2.962 1.14-.558 2.405.34 2.405 1.642 0 1-.761 1.812-1.698 1.812z"/>
</symbol>


<symbol id="spotify" viewBox="0 0 24 24">
<title>spotify</title>
<path d="M19.098 10.638c-3.868-2.297-10.248-2.508-13.941-1.387-.593.18-1.22-.155-1.399-.748-.18-.593.154-1.22.748-1.4 4.239-1.287 11.285-1.038 15.738 1.605.533.317.708 1.005.392 1.538-.316.533-1.005.709-1.538.392zm-.126 3.403c-.272.44-.847.578-1.287.308-3.225-1.982-8.142-2.557-11.958-1.399-.494.15-1.017-.129-1.167-.623-.149-.495.13-1.016.624-1.167 4.358-1.322 9.776-.682 13.48 1.595.44.27.578.847.308 1.286zm-1.469 3.267c-.215.354-.676.465-1.028.249-2.818-1.722-6.365-2.111-10.542-1.157-.402.092-.803-.16-.895-.562-.092-.403.159-.804.562-.896 4.571-1.045 8.492-.595 11.655 1.338.353.215.464.676.248 1.028zm-5.503-17.308c-6.627 0-12 5.373-12 12 0 6.628 5.373 12 12 12 6.628 0 12-5.372 12-12 0-6.627-5.372-12-12-12z"/>
</symbol>

<symbol id="youtube" viewBox="0 0 24 24">
<title>youtube</title>
<path d="M10.918 13.933h.706v3.795h-.706v-.419c-.13.154-.266.272-.405.353-.381.218-.902.213-.902-.557v-3.172h.705v2.909c0 .153.037.256.188.256.138 0 .329-.176.415-.284v-2.881zm.642-4.181c.2 0 .311-.16.311-.377v-1.854c0-.223-.098-.38-.324-.38-.208 0-.309.161-.309.38v1.854c-.001.21.117.377.322.377zm-1.941 2.831h-2.439v.747h.823v4.398h.795v-4.398h.821v-.747zm4.721 2.253v2.105c0 .47-.176.834-.645.834-.259 0-.474-.094-.671-.34v.292h-.712v-5.145h.712v1.656c.16-.194.375-.354.628-.354.517.001.688.437.688.952zm-.727.043c0-.128-.024-.225-.075-.292-.086-.113-.244-.125-.367-.062l-.146.116v2.365l.167.134c.115.058.283.062.361-.039.04-.054.061-.141.061-.262v-1.96zm10.387-2.879c0 6.627-5.373 12-12 12s-12-5.373-12-12 5.373-12 12-12 12 5.373 12 12zm-10.746-2.251c0 .394.12.712.519.712.224 0 .534-.117.855-.498v.44h.741v-3.986h-.741v3.025c-.09.113-.291.299-.436.299-.159 0-.197-.108-.197-.269v-3.055h-.741v3.332zm-2.779-2.294v1.954c0 .703.367 1.068 1.085 1.068.597 0 1.065-.399 1.065-1.068v-1.954c0-.624-.465-1.071-1.065-1.071-.652 0-1.085.432-1.085 1.071zm-2.761-2.455l.993 3.211v2.191h.835v-2.191l.971-3.211h-.848l-.535 2.16-.575-2.16h-.841zm10.119 10.208c-.013-2.605-.204-3.602-1.848-3.714-1.518-.104-6.455-.103-7.971 0-1.642.112-1.835 1.104-1.848 3.714.013 2.606.204 3.602 1.848 3.715 1.516.103 6.453.103 7.971 0 1.643-.113 1.835-1.104 1.848-3.715zm-.885-.255v.966h-1.35v.716c0 .285.024.531.308.531.298 0 .315-.2.315-.531v-.264h.727v.285c0 .731-.313 1.174-1.057 1.174-.676 0-1.019-.491-1.019-1.174v-1.704c0-.659.435-1.116 1.071-1.116.678.001 1.005.431 1.005 1.117zm-.726-.007c0-.256-.054-.445-.309-.445-.261 0-.314.184-.314.445v.385h.623v-.385z"/>
</symbol>


<symbol id="donate" viewBox="0 0 24 24">
<title>donate</title>
<path d="M12 2c5.514 0 10 4.486 10 10s-4.486 10-10 10-10-4.486-10-10 4.486-10 10-10zm0-2c-6.627 0-12 5.373-12 12s5.373 12 12 12 12-5.373 12-12-5.373-12-12-12zm4 14.083c0-2.145-2.232-2.742-3.943-3.546-1.039-.54-.908-1.829.581-1.916.826-.05 1.675.195 2.443.465l.362-1.647c-.907-.276-1.719-.402-2.443-.421v-1.018h-1v1.067c-1.945.267-2.984 1.487-2.984 2.85 0 2.438 2.847 2.81 3.778 3.243 1.27.568 1.035 1.75-.114 2.011-.997.226-2.269-.168-3.225-.54l-.455 1.644c.894.462 1.965.708 3 .727v.998h1v-1.053c1.657-.232 3.002-1.146 3-2.864z"/>
</symbol>



<symbol id="room" viewBox="0 0 24 24">
<title>room</title>
<path d="M.696 8c1.649-4.66 6.08-8 11.304-8 6.627 0 12 5.373 12 12 0 .683-.07 1.348-.18 2h-1.523c-1.137 0-1.316-.507-1.932-2.461-.445-1.414-1.184-3.551-2.811-3.551-1.656 0-2.297 2.215-2.893 4.006-.325.973-.521 1.561-.812 1.561-.279 0-.411-.588-.74-1.563-.616-1.822-1.319-4.003-2.965-4.003-1.705 0-2.436 2.387-2.925 3.908-.354 1.105-.466 1.659-.78 1.659-.267 0-.352-.449-.66-1.344-.701-2.041-.925-4.212-4.06-4.212h-1.023zm21.458 8c-2.297 0-2.845-1.101-3.703-3.563-.531-1.528-.588-2.074-.896-2.074-.301 0-.387.627-.979 2.312-.519 1.475-1.231 3.311-2.727 3.311-1.664 0-2.371-2.225-2.983-4.076-.339-1.024-.425-1.491-.722-1.491-.275 0-.35.42-.696 1.436-.636 1.872-1.341 4.132-3.009 4.132-1.646 0-2.399-2.223-2.809-3.551-.605-1.965-.712-2.436-1.811-2.436h-1.639c-.11.652-.18 1.317-.18 2 0 6.627 5.373 12 12 12 5.223 0 9.653-3.342 11.303-8h-1.149z"/>
</symbol>

<symbol id="facebook" viewBox="0 0 24 24">
<title>facebook</title>
<path d="M12 0c-6.627 0-12 5.373-12 12s5.373 12 12 12 12-5.373 12-12-5.373-12-12-12zm3 8h-1.35c-.538 0-.65.221-.65.778v1.222h2l-.209 2h-1.791v7h-3v-7h-2v-2h2v-2.308c0-1.769.931-2.692 3.029-2.692h1.971v3z"/>

<symbol id="website" viewBox="0 0 24 24">
<title>website</title>
<path d="M15.246 17c-.927 3.701-2.547 6-3.246 7-.699-1-2.32-3.298-3.246-7h6.492zm7.664 0c-1.558 3.391-4.65 5.933-8.386 6.733 1.315-2.068 2.242-4.362 2.777-6.733h5.609zm-21.82 0h5.609c.539 2.386 1.47 4.678 2.777 6.733-3.736-.8-6.828-3.342-8.386-6.733zm14.55-2h-7.28c-.29-1.985-.29-4.014 0-6h7.281c.288 1.986.288 4.015-.001 6zm-9.299 0h-5.962c-.248-.958-.379-1.964-.379-3s.131-2.041.379-3h5.962c-.263 1.988-.263 4.012 0 6zm17.28 0h-5.963c.265-1.988.265-4.012.001-6h5.962c.247.959.379 1.964.379 3s-.132 2.042-.379 3zm-8.375-8h-6.492c.925-3.702 2.546-6 3.246-7 1.194 1.708 2.444 3.799 3.246 7zm-8.548-.001h-5.609c1.559-3.39 4.651-5.932 8.387-6.733-1.237 1.94-2.214 4.237-2.778 6.733zm16.212 0h-5.609c-.557-2.462-1.513-4.75-2.778-6.733 3.736.801 6.829 3.343 8.387 6.733z"/>
</symbol>

<symbol id="paypal" viewBox="0 0 24 24">
<title>paypal</title>
<path d="M22 9.761c0 .536-.065 1.084-.169 1.627-.847 4.419-3.746 5.946-7.449 5.946h-.572c-.453 0-.838.334-.908.789l-.803 5.09c-.071.453-.456.787-.908.787h-2.736c-.39 0-.688-.348-.628-.732l1.386-8.88.062-.056h2.155c5.235 0 8.509-2.618 9.473-7.568.812.814 1.097 1.876 1.097 2.997zm-14.216 4.252c.116-.826.459-1.177 1.385-1.179l2.26-.002c4.574 0 7.198-2.09 8.023-6.39.8-4.134-2.102-6.442-6.031-6.442h-7.344c-.517 0-.958.382-1.038.901-2.304 14.835-2.97 18.607-3.038 19.758-.021.362.269.672.635.672h3.989l1.159-7.318z"/>
</symbol>

<symbol id="study" viewBox="0 0 24 24">
<title>study</title>
<path d="M20 12.875v5.068c0 2.754-5.789 4.057-9 4.057-3.052 0-9-1.392-9-4.057v-6.294l9 4.863 9-3.637zm-8.083-10.875l-12.917 5.75 12 6.5 11-4.417v7.167h2v-8.25l-12.083-6.75zm13.083 20h-4c.578-1 1-2.5 1-4h2c0 1.516.391 2.859 1 4z"/>
</symbol>

<symbol id="stack" viewBox="0 0 24 24">
<title>stack</title>
<path d="M21.698 10.658l2.302 1.342-12.002 7-11.998-7 2.301-1.342 9.697 5.658 9.7-5.658zm-9.7 10.657l-9.697-5.658-2.301 1.343 11.998 7 12.002-7-2.302-1.342-9.7 5.657zm12.002-14.315l-12.002-7-11.998 7 11.998 7 12.002-7z"/>
</symbol>

<symbol id="tools" viewBox="0 0 24 24">
<title>tools</title>
<path d="M17 10.645v-2.29c-1.17-.417-1.907-.533-2.28-1.431-.373-.9.07-1.512.6-2.625l-1.618-1.619c-1.105.525-1.723.974-2.626.6-.9-.373-1.017-1.116-1.431-2.28h-2.29c-.412 1.158-.53 1.907-1.431 2.28h-.001c-.9.374-1.51-.07-2.625-.6l-1.617 1.619c.527 1.11.973 1.724.6 2.625-.375.901-1.123 1.019-2.281 1.431v2.289c1.155.412 1.907.531 2.28 1.431.376.908-.081 1.534-.6 2.625l1.618 1.619c1.107-.525 1.724-.974 2.625-.6h.001c.9.373 1.018 1.118 1.431 2.28h2.289c.412-1.158.53-1.905 1.437-2.282h.001c.894-.372 1.501.071 2.619.602l1.618-1.619c-.525-1.107-.974-1.723-.601-2.625.374-.899 1.126-1.019 2.282-1.43zm-8.5 1.689c-1.564 0-2.833-1.269-2.833-2.834s1.269-2.834 2.833-2.834 2.833 1.269 2.833 2.834-1.269 2.834-2.833 2.834zm15.5 4.205v-1.077c-.55-.196-.897-.251-1.073-.673-.176-.424.033-.711.282-1.236l-.762-.762c-.52.248-.811.458-1.235.283-.424-.175-.479-.525-.674-1.073h-1.076c-.194.545-.25.897-.674 1.073-.424.176-.711-.033-1.235-.283l-.762.762c.248.523.458.812.282 1.236-.176.424-.528.479-1.073.673v1.077c.544.193.897.25 1.073.673.177.427-.038.722-.282 1.236l.762.762c.521-.248.812-.458 1.235-.283.424.175.479.526.674 1.073h1.076c.194-.545.25-.897.676-1.074h.001c.421-.175.706.034 1.232.284l.762-.762c-.247-.521-.458-.812-.282-1.235s.529-.481 1.073-.674zm-4 .794c-.736 0-1.333-.597-1.333-1.333s.597-1.333 1.333-1.333 1.333.597 1.333 1.333-.597 1.333-1.333 1.333zm-4 3.071v-.808c-.412-.147-.673-.188-.805-.505s.024-.533.212-.927l-.572-.571c-.389.186-.607.344-.926.212s-.359-.394-.506-.805h-.807c-.146.409-.188.673-.506.805-.317.132-.533-.024-.926-.212l-.572.571c.187.393.344.609.212.927-.132.318-.396.359-.805.505v.808c.408.145.673.188.805.505.133.32-.028.542-.212.927l.572.571c.39-.186.608-.344.926-.212.318.132.359.395.506.805h.807c.146-.409.188-.673.507-.805h.001c.315-.131.529.025.924.213l.572-.571c-.186-.391-.344-.609-.212-.927s.397-.361.805-.506zm-3 .596c-.552 0-1-.447-1-1s.448-1 1-1 1 .447 1 1-.448 1-1 1z"/>
</symbol>

<symbol id="heart"  width="15px" height="15px" viewBox="0 0 24 24">
<title>heart</title>
<path d="M12 4.435c-1.989-5.399-12-4.597-12 3.568 0 4.068 3.06 9.481 12 14.997 8.94-5.516 12-10.929 12-14.997 0-8.118-10-8.999-12-3.568z"/>
</symbol>

<symbol id="share" viewBox="0 0 24 24">
<title>share</title>
<path d="M5 7c2.761 0 5 2.239 5 5s-2.239 5-5 5-5-2.239-5-5 2.239-5 5-5zm11.122 12.065c-.073.301-.122.611-.122.935 0 2.209 1.791 4 4 4s4-1.791 4-4-1.791-4-4-4c-1.165 0-2.204.506-2.935 1.301l-5.488-2.927c-.23.636-.549 1.229-.943 1.764l5.488 2.927zm7.878-15.065c0-2.209-1.791-4-4-4s-4 1.791-4 4c0 .324.049.634.122.935l-5.488 2.927c.395.535.713 1.127.943 1.764l5.488-2.927c.731.795 1.77 1.301 2.935 1.301 2.209 0 4-1.791 4-4z"/>
</symbol>


<symbol id="dance" viewBox="0 0 24 24">
<title>dance</title>
<path d="M18.028 24h-.018c-.268 0-.49-.213-.499-.483-.05-1.462.19-2.847 2.265-3.08.795-.089.858-.367.996-.977.229-1.008.607-1.922 2.701-2.032.285-.02.512.197.526.473.014.276-.197.512-.473.526-1.512.079-1.618.547-1.778 1.254-.152.667-.359 1.581-1.861 1.751-1.016.113-1.432.423-1.377 2.051.01.276-.207.507-.482.517zm-8.342-18.714c.241.213.53.366.842.444l3.566.896c.3.076.617.051.903-.07 1.082-.461 3.862-1.684 5.062-2.155.76-.299 1.268.63.655 1.097-1.39 1.062-5.714 4.086-5.714 4.086l-.862 3.648s1.785 1.86 2.544 2.7c.423.469.696.919.421 1.595-.481 1.181-1.457 3.477-1.908 4.547-.255.605-1.164.453-1.015-.322.217-1.128.781-4.016.781-4.016l-3.558-1.62s-.253 5.953-.327 7.296c-.019.341-.253.589-.582.588-.249-.001-.508-.173-.612-.596-.534-2.178-2.142-8.99-2.142-8.99-.209-.837-.329-1.53-.053-2.564l.915-3.85s-2.726-3.984-3.709-5.476c-.402-.611.356-1.18.808-.78l3.985 3.542zm-7.178 8.489l-.853.511 2.708 4.524c-1.788.306-2.917 1.904-2.048 3.356.537.897 1.753 1.106 2.622.586 1.034-.619 1.774-1.952.979-3.284l-3.408-5.693zm17.721-5.193l.904 1.669 1.867.344-1.308 1.376.249 1.882-1.712-.819-1.713.819.25-1.882-1.309-1.376 1.867-.344.905-1.669zm-17.298-2.935l-2.934 2.935 2.934 2.935 2.935-2.935-2.935-2.935zm9.055-5.398c1.36-.626 2.972-.03 3.597 1.33.626 1.36.03 2.972-1.33 3.598-1.36.625-2.972.029-3.598-1.331-.625-1.36-.029-2.972 1.331-3.597z"/>
</symbol>



<symbol id="travel" viewBox="0 0 24 24">
<title>travel</title>
<path d="M9.082 2.303c.299-1.286 1.468-2.303 2.918-2.303 1.487 0 2.639 1.057 2.923 2.316 1.701.422 3.117 1.306 4.056 2.81.748 1.199 1.054 2.393 1.553 6.089 1.002.265 1.634.865 1.912 1.76.263.846.516 3.591.554 5.029.035 1.473-.395 2.64-1.881 3.131l-.01.003c-.498 3.078-3.527 2.848-4.527 2.859-1.444.009-2.692-.004-4.576-.011-1.198.004-5.325.013-5.804-.016-1.984-.158-3.03-1.228-3.297-2.829-1.144-.363-1.904-1.3-1.904-2.805 0-1.27.205-3.603.482-5.056.233-1.083.886-1.775 1.994-2.067.47-3.648.804-5.189 1.868-6.588.951-1.251 2.245-1.956 3.739-2.322m-2.827 4.823c-.436 1.241-.839 4.666-.991 5.915-.331.02-.67.032-1.004.062-.688.073-.765.255-.845.727-.274 1.602-.413 3.459-.415 4.565.01.593.204.797.695.887.156.027.929.09 1.1.105.083 2.411.128 2.588 2.649 2.611 1.335.008 4.56-.011 4.56-.011 2.637.01 3.49.021 4.862.008 2.281-.022 2.273-.42 2.347-2.607.332-.029.664-.053.995-.091.836-.118.812-.542.784-1.39-.04-1.277-.184-2.807-.425-4.195-.068-.341-.178-.486-.569-.57-.274-.062-.97-.085-1.252-.102-.124-1-.548-4.579-.991-5.852-.877-2.523-3.084-3.19-5.777-3.19-2.65 0-4.843.628-5.723 3.128m11.746 10.863c-.012 1.923-.901 2.937-2.888 2.998-2.073.019-4.144.021-6.217 0-1.896-.061-2.854-1.164-2.896-2.928v-4.068h12.001v3.998zm-7-2.998h-4c0 1.036-.023 2.071.001 3.106.045 1.318.711 1.85 1.915 1.89 2.059.021 4.118.019 6.176 0 1.383-.043 1.895-.565 1.909-2.001v-2.995h-4.001v2.998c0 .551-.449 1-1 1-.552 0-1-.449-1-1v-2.998zm.446-8.196c-1.944.149-2.953.773-3.213 5.208-.062.632-.961.629-1-.019.013-.702.153-1.945.351-2.804.359-1.542 1.033-2.742 2.543-3.185.974-.286 2.781-.285 3.749 0 1.455.426 2.133 1.555 2.496 3.037.244 1 .392 2.656.366 3.016-.084.582-.895.593-.993.01-.306-3.096-.336-5.126-3.255-5.267l.676 2.335c.166.75-.405 1.455-1.166 1.455-.751 0-1.319-.688-1.171-1.43l.617-2.356zm.554 1.994c.33 0 .598.268.598.597 0 .33-.268.598-.598.598-.33 0-.597-.268-.597-.598 0-.329.267-.597.597-.597m1.791-6.683c-.328-.659-.995-1.107-1.797-1.107-.814.01-1.46.46-1.783 1.102 1.082-.133 2.448-.141 3.58.005"/>
</symbol>


<symbol id="create" viewBox="0 0 24 24">
<title>create</title>
<path d="M11 6.999c2.395.731 4.27 2.607 4.999 5.001.733-2.395 2.608-4.269 5.001-5-2.393-.731-4.268-2.605-5.001-5-.729 2.394-2.604 4.268-4.999 4.999zm7 7c1.437.438 2.562 1.564 2.999 3.001.44-1.437 1.565-2.562 3.001-3-1.436-.439-2.561-1.563-3.001-3-.437 1.436-1.562 2.561-2.999 2.999zm-6 5.501c1.198.365 2.135 1.303 2.499 2.5.366-1.198 1.304-2.135 2.501-2.5-1.197-.366-2.134-1.302-2.501-2.5-.364 1.197-1.301 2.134-2.499 2.5zm-6.001-12.5c-.875 2.873-3.128 5.125-5.999 6.001 2.876.88 5.124 3.128 6.004 6.004.875-2.874 3.128-5.124 5.996-6.004-2.868-.874-5.121-3.127-6.001-6.001z"/>
</symbol>


<symbol id="smile" viewBox="0 0 24 24">
<title>smile</title>
<path d="M12 2c5.514 0 10 4.486 10 10s-4.486 10-10 10-10-4.486-10-10 4.486-10 10-10zm0-2c-6.627 0-12 5.373-12 12s5.373 12 12 12 12-5.373 12-12-5.373-12-12-12zm5.508 13.941c-1.513 1.195-3.174 1.931-5.507 1.931-2.335 0-3.996-.736-5.509-1.931l-.492.493c1.127 1.72 3.2 3.566 6.001 3.566 2.8 0 4.872-1.846 5.999-3.566l-.492-.493zm.492-3.939l-.755.506s-.503-.948-1.746-.948c-1.207 0-1.745.948-1.745.948l-.754-.506c.281-.748 1.205-2.002 2.499-2.002 1.295 0 2.218 1.254 2.501 2.002zm-7 0l-.755.506s-.503-.948-1.746-.948c-1.207 0-1.745.948-1.745.948l-.754-.506c.281-.748 1.205-2.002 2.499-2.002 1.295 0 2.218 1.254 2.501 2.002z"/>
</symbol>


</defs>
</svg>